<?xml version="1.0" encoding="UTF-8"?>
<svg width="103px" height="43px" viewBox="0 0 103 43" version="1.1" xmlns="http://www.w3.org/2000/svg" xmlns:xlink="http://www.w3.org/1999/xlink">
    <!-- Generator: Sketch 48.2 (47327) - http://www.bohemiancoding.com/sketch -->
    <title>assets/logo-brand</title>
    <desc>Created with Sketch.</desc>
    <defs></defs>
    <g id="ui/styleguide" stroke="none" stroke-width="1" fill="none" fill-rule="evenodd" transform="translate(-125.000000, -102.000000)">
        <g id="logo-brand" transform="translate(125.000000, 102.000000)">
            <g>
                <path d="M19.8615273,33.7820317 L19.8615273,38.2088789 C19.8615273,39.2777046 19.3642535,40.0718559 17.9842452,40.0718559 L1.73972267,40.0718559 C0.361185552,40.0718559 0,39.2777046 0,38.2088789 L0,33.7820317 C0,32.7110203 0.361185552,32.0574847 1.73972267,32.0574847 L5.14928485,32.0574847 L5.14928485,8.71235005 L1.74119389,8.71235005 C0.359714328,8.71235005 0,8.06172883 0,6.98998883 L0,2.64109959 C0,1.57227391 0.478883491,0.728579198 1.86036306,0.728579198 L18.1181266,0.728579198 C19.4996061,0.728579198 19.8615273,1.48630156 19.8615273,2.55512725 L19.8615273,7.02058915 C19.8615273,8.09160057 19.4996061,8.74295038 18.1181266,8.74295038 L14.7122424,8.74295038 L14.7122424,32.0574847 L17.9842452,32.0574847 C19.3642535,32.0574847 19.8615273,32.7110203 19.8615273,33.7820317" id="Fill-1" fill="#3B5B78"></path>
                <path d="M58.5804713,39.8751395 L55.698343,42.1905642 C54.7398404,43.1442744 53.7783954,43.2652185 53.001589,42.4863674 L50.1209319,39.571322 C47.5992536,40.6437906 45.2041005,40.7589061 42.6243088,40.7589061 C35.4874,40.7589061 26.4820364,36.8406072 26.4820364,27.451407 L26.4820364,13.4284432 C26.4820364,4.04215739 35.3608747,0 42.4977835,0 C49.6398416,0 58.8489698,4.04215739 58.8489698,13.4284432 L58.8489698,27.451407 C58.8489698,30.4822965 58.1015878,32.6235908 56.5384121,34.584926 L58.8173384,37.1407818 C59.601501,37.8533322 59.601501,38.8667859 58.5804713,39.8751395 L58.5804713,39.8751395 Z M49.2860122,14.2036515 C49.2860122,10.3990109 46.5186394,8.01437118 42.5603105,8.01437118 C38.6608307,8.01437118 35.9037565,10.3990109 35.9037565,14.2036515 L35.9037565,26.5603547 C35.9037565,30.3642667 38.6608307,32.7860639 42.5603105,32.7860639 C46.5186394,32.7860639 49.2860122,30.3642667 49.2860122,26.5603547 L49.2860122,14.2036515 L49.2860122,14.2036515 Z" id="Fill-2" fill="#3B5B78"></path>
                <path d="M98.8066846,14.6662993 L77.2054347,2.31469611 C71.6368509,-0.872837879 67.0804694,1.7303756 67.0804694,8.10180068 L67.0804694,32.8130213 C67.0804694,39.1771606 71.6368509,41.7854742 77.2054347,38.6030402 L98.8066846,26.2456085 C104.378946,23.0580745 104.378946,17.8450903 98.8066846,14.6662993 L98.8066846,14.6662993 Z" id="Fill-5" fill="#3B5B78"></path>
                <path d="M85.3405691,22.5036257 C85.3405691,24.6653202 83.4250351,25.6139303 81.889077,25.6139303 C80.3663599,25.6139303 78.4493548,24.6653202 78.4493548,22.5036257 L78.4493548,19.3015201 C78.4493548,17.1412828 80.3663599,16.1941298 81.889077,16.1941298 C83.4250351,16.1941298 85.3405691,17.1412828 85.3405691,19.3015201 L85.3405691,22.5036257 Z M81.889077,18.1081074 C81.0460655,18.1081074 80.4627251,18.7295854 80.4627251,19.6060662 L80.4627251,22.2019939 C80.4627251,23.081389 81.0460655,23.6933955 81.889077,23.6933955 C82.7313529,23.6933955 83.3227851,23.081389 83.3227851,22.2019939 L83.3227851,19.6060662 C83.3227851,18.7295854 82.7313529,18.1081074 81.889077,18.1081074 Z" id="Fill-3" fill="#FFFFFF"></path>
                <path d="M93.6213548,22.5036257 C93.6213548,24.6653202 91.7021427,25.6139303 90.1676559,25.6139303 C88.64641,25.6139303 86.7249911,24.6653202 86.7249911,22.5036257 L86.7249911,19.3015201 C86.7249911,17.1412828 88.64641,16.1941298 90.1676559,16.1941298 C91.7021427,16.1941298 93.6213548,17.1412828 93.6213548,19.3015201 L93.6213548,22.5036257 Z M90.1676559,18.1081074 C89.3217019,18.1081074 88.741304,18.7295854 88.741304,19.6060662 L88.741304,22.2019939 C88.741304,23.081389 89.3217019,23.6933955 90.1676559,23.6933955 C91.011403,23.6933955 91.6072488,23.081389 91.6072488,22.2019939 L91.6072488,19.6060662 C91.6072488,18.7295854 91.011403,18.1081074 90.1676559,18.1081074 Z" id="Fill-4" fill="#FFFFFF"></path>
                <path d="M73.6928868,25.6139303 C71.9524285,25.6139303 70.3767473,24.4868183 70.3767473,23.026017 C70.3767473,22.6668274 70.456929,22.6143697 70.7629437,22.6143697 L71.9928872,22.6143697 C72.228283,22.6143697 72.2863964,22.6799419 72.3393605,22.9160015 C72.5460675,23.5724514 73.3191958,23.7218101 73.7774822,23.7218101 C74.3549377,23.7218101 75.0773088,23.3815636 75.0773088,22.6427843 C75.0773088,21.9171194 74.5645871,21.5615728 73.609027,21.5615728 L72.9918484,21.5615728 C72.6725928,21.5615728 72.615215,21.4814291 72.615215,21.16304 L72.615215,20.2880164 C72.615215,20.0818284 72.6725928,19.9448555 72.7799921,19.8217257 L74.2284124,18.3157525 L71.2344711,18.3157525 C70.9181578,18.3157525 70.8335625,18.1518221 70.8335625,17.9186768 L70.8335625,16.8126936 C70.8335625,16.5635195 70.9181578,16.4156179 71.2344711,16.4156179 L76.5146949,16.4156179 C76.82733,16.4156179 76.9141323,16.5635195 76.9141323,16.8126936 L76.9141323,17.9186768 C76.9141323,18.100093 76.8692599,18.1787796 76.7625962,18.3157525 L75.0331721,20.1372005 C76.0012376,20.3550456 77.1318734,21.218412 77.1318734,22.626027 C77.1318734,24.5968337 75.5591347,25.6000873 73.6928868,25.6139303 L73.6928868,25.6139303 Z" id="Path" fill="#FFFFFF"></path>
            </g>
        </g>
    </g>
</svg>