<svg width="103" height="43" viewBox="0 0 103 43" version="1.1" xmlns="http://www.w3.org/2000/svg" xmlns:xlink="http://www.w3.org/1999/xlink">
<title>logo-brand</title>
<desc>Created using Figma</desc>
<g id="Canvas" transform="translate(1305 -476)">
<rect x="-1305" y="476" width="103" height="43" fill="#FFFFFF"/>
<clipPath id="clip-0" clip-rule="evenodd">
<path d="M -1430 -758L 2202 -758L 2202 869L -1430 869L -1430 -758Z" fill="#FFFFFF"/>
</clipPath>
<g id="ui/styleguide" clip-path="url(#clip-0)">
<path d="M -1430 -758L 2202 -758L 2202 869L -1430 869L -1430 -758Z" fill="#FFFFFF"/>
<g id="assets/logo-brand">
<g id="logo-brand">
<g id="Fill 1">
<use xlink:href="#path0_fill" transform="translate(-1305 476.729)" fill="#3B5B78"/>
</g>
<g id="Fill 2">
<use xlink:href="#path1_fill" transform="translate(-1278.52 476)" fill="#3B5B78"/>
</g>
<g id="Fill 5">
<use xlink:href="#path2_fill" transform="translate(-1237.92 476.953)" fill="#3B5B78"/>
</g>
<g id="Fill 3">
<use xlink:href="#path3_fill" transform="translate(-1226.55 492.194)" fill="#FFFFFF"/>
</g>
<g id="Fill 4">
<use xlink:href="#path4_fill" transform="translate(-1218.27 492.194)" fill="#FFFFFF"/>
</g>
<g id="Path">
<use xlink:href="#path5_fill" transform="translate(-1234.62 492.416)" fill="#FFFFFF"/>
</g>
</g>
</g>
</g>
</g>
<defs>
<path id="path0_fill" fill-rule="evenodd" d="M 19.8615 33.0534L 19.8615 37.4803C 19.8615 38.5491 19.3643 39.3433 17.9842 39.3433L 1.73972 39.3433C 0.361186 39.3433 0 38.5491 0 37.4803L 0 33.0534C 0 31.9824 0.361186 31.3289 1.73972 31.3289L 5.14928 31.3289L 5.14928 7.98377L 1.74119 7.98377C 0.359714 7.98377 0 7.33315 0 6.26141L 0 1.91252C 0 0.843694 0.478883 0 1.86036 0L 18.1181 0C 19.4996 0 19.8615 0.757722 19.8615 1.82655L 19.8615 6.29201C 19.8615 7.36302 19.4996 8.01437 18.1181 8.01437L 14.7122 8.01437L 14.7122 31.3289L 17.9842 31.3289C 19.3643 31.3289 19.8615 31.9824 19.8615 33.0534Z"/>
<path id="path1_fill" fill-rule="evenodd" d="M 32.0984 39.8751L 29.2163 42.1906C 28.2578 43.1443 27.2964 43.2652 26.5196 42.4864L 23.6389 39.5713C 21.1172 40.6438 18.7221 40.7589 16.1423 40.7589C 9.00537 40.7589 0 36.8406 0 27.4514L 0 13.4284C 0 4.04216 8.87884 0 16.0158 0C 23.1578 0 32.3669 4.04216 32.3669 13.4284L 32.3669 27.4514C 32.3669 30.4823 31.6196 32.6236 30.0564 34.5849L 32.3353 37.1408C 33.1195 37.8533 33.1195 38.8668 32.0984 39.8751ZM 22.804 14.2037C 22.804 10.399 20.0366 8.01437 16.0783 8.01437C 12.1788 8.01437 9.42175 10.399 9.42175 14.2037L 9.42175 26.5604C 9.42175 30.3643 12.1788 32.7861 16.0783 32.7861C 20.0366 32.7861 22.804 30.3643 22.804 26.5604L 22.804 14.2037Z"/>
<path id="path2_fill" fill-rule="evenodd" d="M 31.7262 13.7131L 10.125 1.36148C 4.55638 -1.82606 0 0.777156 0 7.14858L 0 31.8598C 0 38.2239 4.55638 40.8322 10.125 37.6498L 31.7262 25.2924C 37.2985 22.1048 37.2985 16.8919 31.7262 13.7131Z"/>
<path id="path3_fill" fill-rule="evenodd" d="M 3.43965 1.91397C 2.59664 1.91397 2.01331 2.53545 2.01331 3.41193L 2.01331 6.00785C 2.01331 6.88725 2.59664 7.49925 3.43965 7.49925C 4.28193 7.49925 4.87336 6.88725 4.87336 6.00785L 4.87336 3.41193C 4.87336 2.53545 4.28193 1.91397 3.43965 1.91397ZM 6.89123 6.3095C 6.89123 8.47119 4.97569 9.4198 3.43973 9.4198C 1.91701 9.4198 0 8.47119 0 6.3095L 0 3.10739C 0 0.947153 1.91701 0 3.43973 0C 4.97569 0 6.89123 0.947153 6.89123 3.10739L 6.89123 6.3095Z"/>
<path id="path4_fill" fill-rule="evenodd" d="M 3.44272 1.91397C 2.59676 1.91397 2.01636 2.53545 2.01636 3.41193L 2.01636 6.00785C 2.01636 6.88725 2.59676 7.49925 3.44272 7.49925C 4.28647 7.49925 4.88232 6.88725 4.88232 6.00785L 4.88232 3.41193C 4.88232 2.53545 4.28647 1.91397 3.44272 1.91397ZM 6.89635 6.3095C 6.89635 8.47119 4.97715 9.4198 3.44266 9.4198C 1.92142 9.4198 0 8.47119 0 6.3095L 0 3.10739C 0 0.947153 1.92142 0 3.44266 0C 4.97715 0 6.89635 0.947153 6.89635 3.10739L 6.89635 6.3095Z"/>
<path id="path5_fill" fill-rule="evenodd" d="M 3.31615 9.19831C 1.57569 9.19831 0 8.0712 0 6.6104C 0 6.25121 0.0801819 6.19875 0.386197 6.19875L 1.61614 6.19875C 1.85154 6.19875 1.90965 6.26432 1.96262 6.50038C 2.16933 7.15683 2.94246 7.30619 3.40074 7.30619C 3.9782 7.30619 4.70057 6.96595 4.70057 6.22717C 4.70057 5.5015 4.18785 5.14596 3.23229 5.14596L 2.61511 5.14596C 2.29585 5.14596 2.23847 5.06581 2.23847 4.74742L 2.23847 3.8724C 2.23847 3.66621 2.29585 3.52924 2.40325 3.40611L 3.85167 1.90013L 0.857726 1.90013C 0.541412 1.90013 0.456816 1.7362 0.456816 1.50306L 0.456816 0.397076C 0.456816 0.147902 0.541412 0 0.857726 0L 6.13796 0C 6.4506 0 6.5374 0.147902 6.5374 0.397076L 6.5374 1.50306C 6.5374 1.68448 6.49253 1.76316 6.38586 1.90013L 4.65644 3.72158C 5.6245 3.93943 6.75514 4.80279 6.75514 6.21041C 6.75514 8.18122 5.1824 9.18447 3.31615 9.19831Z"/>
</defs>
</svg>
